<?xml version="1.0" encoding="UTF-8"?>
<svg version="1.1" xmlns="http://www.w3.org/2000/svg" width="1024" height="1024">
<path d="M0 0 C1.31418097 -0.00424107 1.31418097 -0.00424107 2.65491104 -0.00856781 C7.30721575 -0.02347655 11.95949022 -0.03275397 16.61181641 -0.03710938 C20.38535408 -0.04146048 24.15865879 -0.05523253 27.93212891 -0.078125 C50.98054622 -0.2151707 73.55438788 0.36237193 96.4453125 3.203125 C97.48902512 3.32793243 98.53273773 3.45273987 99.608078 3.58132935 C137.08879948 8.06635795 172.92569989 17.72160463 208.4453125 30.203125 C210.04125244 30.76217529 210.04125244 30.76217529 211.66943359 31.33251953 C226.69159336 36.65910208 241.07164544 43.34160239 255.4453125 50.203125 C256.76547363 50.82525879 256.76547363 50.82525879 258.11230469 51.45996094 C278.80038041 61.23815021 298.69081968 73.10532045 317.4453125 86.203125 C318.11675293 86.66638184 318.78819336 87.12963867 319.47998047 87.60693359 C332.86451075 96.84320228 345.65998795 106.66192385 357.99633789 117.25634766 C360.18039457 119.12809156 362.37599435 120.9840146 364.58666992 122.82421875 C373.22866033 130.05972355 381.30919779 137.75574693 389.25170898 145.7487793 C391.26649085 147.77434982 393.29184525 149.78890884 395.31835938 151.80273438 C401.76072781 158.23885482 407.95333394 164.68944912 413.57714844 171.86352539 C415.57944318 174.37110387 417.70320967 176.72389301 419.8828125 179.078125 C481.1327188 246.56938617 517.53139424 339.1734433 534.4453125 457.203125 C534.53264145 458.11943695 534.6199704 459.0357489 534.70994568 459.97982788 C535.54672105 469.56565025 535.62708989 479.1085524 535.6484375 488.72265625 C535.65126488 489.59752874 535.65409225 490.47240124 535.65700531 491.37378502 C535.67191566 496.0207587 535.68119169 500.66770209 535.68554688 505.31469727 C535.68989521 509.08139933 535.70365601 512.84786765 535.7265625 516.61450195 C535.8658758 540.0085064 535.29810854 562.96297086 532.4453125 586.203125 C532.28814758 587.51263626 532.28814758 587.51263626 532.12780762 588.84860229 C531.57787699 593.33807343 530.92684475 597.80150792 530.1953125 602.265625 C529.88279541 604.21094116 529.88279541 604.21094116 529.56396484 606.19555664 C515.72134055 690.37084231 480.03492767 770.80709239 426.4453125 837.203125 C425.66285156 838.18023438 424.88039063 839.15734375 424.07421875 840.1640625 C419.79399613 845.46055981 415.37600654 850.59502864 410.78125 855.62109375 C409.54210196 856.99078748 408.30783323 858.36571291 407.11523438 859.77612305 C401.46562668 866.4179653 395.29328078 872.54124004 389.13134766 878.70239258 C387.20835068 880.62757202 385.29350676 882.56061531 383.37890625 884.49414062 C377.10550248 890.79555925 370.81109067 896.81751765 363.80908203 902.31298828 C361.29440749 904.32379289 358.93248821 906.4536213 356.5703125 908.640625 C285.21706136 973.395378 183.8043136 1012.96914585 26.58325195 1024.64995575 C23.96069115 1024.64045428 21.33815036 1024.63562831 18.71557617 1024.63140869 C-18.97209328 1024.54963223 -55.67627851 1022.37495773 -92.5546875 1014.203125 C-93.67311035 1013.95804199 -94.7915332 1013.71295898 -95.94384766 1013.46044922 C-167.10080642 997.65601402 -234.84894609 966.89371278 -292.5546875 922.203125 C-293.35519531 921.58969238 -293.35519531 921.58969238 -294.171875 920.96386719 C-301.00164591 915.72744721 -307.67151138 910.3351843 -314.1796875 904.703125 C-315.02043823 903.97561035 -315.02043823 903.97561035 -315.87817383 903.23339844 C-326.09029555 894.31032638 -335.91491773 885.0295475 -345.5012207 875.44189453 C-347.24607558 873.69924183 -348.99882493 871.96479337 -350.75195312 870.23046875 C-356.75520508 864.25644784 -362.41755242 858.21692252 -367.66943359 851.56201172 C-369.53047612 849.23341901 -371.47925966 847.02585929 -373.4921875 844.828125 C-430.18606549 781.54972181 -465.38786344 697.44399976 -487.5546875 568.203125 C-487.64057129 567.24008453 -487.72645508 566.27704407 -487.81494141 565.28482056 C-488.61448705 555.37889064 -488.73568701 545.51902252 -488.7578125 535.5859375 C-488.76063988 534.71198208 -488.76346725 533.83802666 -488.76638031 532.93758774 C-488.78127815 528.29709334 -488.79056251 523.65662917 -488.79492188 519.01611328 C-488.79927264 515.2562471 -488.81304504 511.49661478 -488.8359375 507.73681641 C-488.97529578 484.36151098 -488.40722023 461.4246232 -485.5546875 438.203125 C-485.44991089 437.33238342 -485.34513428 436.46164185 -485.23718262 435.56451416 C-484.68738848 431.09352234 -484.03587575 426.6486864 -483.3046875 422.203125 C-483.09561768 420.90737549 -482.88654785 419.61162598 -482.67114258 418.27661133 C-478.69558498 394.14526615 -473.07480017 370.48472016 -465.5546875 347.203125 C-465.23918945 346.22617676 -464.92369141 345.24922852 -464.59863281 344.24267578 C-447.17142838 290.99489105 -420.88556192 240.51460389 -386.5546875 196.203125 C-386.14041504 195.66413574 -385.72614258 195.12514648 -385.29931641 194.56982422 C-380.20204691 187.94394003 -374.98540967 181.43426569 -369.5546875 175.078125 C-369.11729248 174.56523926 -368.67989746 174.05235352 -368.22924805 173.52392578 C-359.34879454 163.23157727 -349.97553166 153.43736717 -340.36621094 143.8293457 C-338.55113193 142.01206512 -336.74424843 140.18688667 -334.9375 138.36132812 C-328.11390258 131.50522107 -321.14087168 125.21477394 -313.5546875 119.203125 C-311.82942923 117.73773735 -310.12699748 116.24969756 -308.42578125 114.7565918 C-239.89461378 54.69520677 -147.62821425 15.71616233 0 0 Z " fill="#010100" transform="translate(488.5546875,-0.203125)"/>
<path d="M0 0 C-3.60039059 2.80183737 -7.40569487 4.77458836 -11.5 6.75 C-23.01557371 12.43401093 -33.27889343 18.5281346 -43 27 C-43.82113281 27.69867188 -44.64226562 28.39734375 -45.48828125 29.1171875 C-50.15124149 33.17775574 -54.5501162 37.46329083 -58.8125 41.9375 C-59.29721551 42.43942525 -59.78193102 42.9413505 -60.28133488 43.4584856 C-63.22480458 46.64264971 -65.45782261 49.66746933 -67.37998962 53.56388855 C-70.62600299 59.78195988 -74.03067827 65.6557755 -80.9709053 68.00610733 C-89.31292039 69.4605897 -97.75558895 69.14590361 -106.18336987 68.86236215 C-109.89424255 68.75827876 -113.60502333 68.76205822 -117.31712341 68.75492859 C-124.34161214 68.72630666 -131.36158935 68.61063149 -138.38439554 68.45901603 C-150.9481548 68.19122196 -163.51410761 68.08556061 -176.08020347 67.99259061 C-180.47933904 67.95676551 -184.87623808 67.88726022 -189.27438176 67.78774226 C-191.35597948 67.7434966 -193.43741897 67.71057862 -195.51928711 67.68206787 C-198.04125349 67.64624893 -200.56306477 67.59199867 -203.08409119 67.51438904 C-213.29751913 67.41775775 -223.06381607 70.09402453 -230.59765625 77.3515625 C-235.27581817 82.85068319 -236.68791648 88.06086446 -236.37890625 95.2578125 C-235.54345651 101.30405703 -233.32898354 106.10069523 -228.875 110.3125 C-221.48859054 115.82344776 -213.83648338 117.59720456 -204.76782227 117.5300293 C-203.79892059 117.53876068 -202.83001892 117.54749207 -201.83175659 117.55648804 C-198.65977981 117.58069129 -195.48846309 117.57746327 -192.31640625 117.57421875 C-190.09259448 117.58668096 -187.86879252 117.60101987 -185.64500427 117.61714172 C-179.80823729 117.65506167 -173.97163957 117.67033349 -168.13476562 117.67993164 C-158.79797175 117.69971298 -149.46130606 117.75682113 -140.12464714 117.80869484 C-136.87935605 117.82392336 -133.63412957 117.83121028 -130.3888092 117.83683777 C-128.37972994 117.84386137 -126.37065094 117.85096286 -124.36157227 117.8581543 C-123.47240616 117.85762558 -122.58324005 117.85709686 -121.66712952 117.85655212 C-94.04895539 117.98670929 -65.91344714 124.91749636 -46 145 C-36.28382639 156.07745888 -33.95593888 167.56437549 -34.81103516 181.88183594 C-35.54493141 190.10830088 -38.23689306 197.70465158 -42 205 C-42.54398438 206.0828125 -43.08796875 207.165625 -43.6484375 208.28125 C-47.65443815 215.93538472 -52.08606301 221.60838911 -58.41015625 227.55078125 C-60.6143725 229.63531155 -62.56311816 231.73545491 -64.5 234.0625 C-82.36973936 254.73615631 -108.68188987 270.9267835 -135 278 C-135.85816252 278.267587 -135.85816252 278.267587 -136.73366165 278.5405798 C-139.8869863 279.1798052 -142.90731001 279.12255923 -146.12469482 279.12025452 C-147.20175387 279.12153615 -147.20175387 279.12153615 -148.30057168 279.12284368 C-150.7065914 279.1244908 -153.11254139 279.11898967 -155.51855469 279.11352539 C-157.24326068 279.11324333 -158.9679668 279.11340163 -160.69267273 279.1139679 C-165.37618129 279.11425512 -170.05966431 279.10837041 -174.74316692 279.10139394 C-179.63722797 279.09514802 -184.53128959 279.09455562 -189.425354 279.09336853 C-198.69358509 279.09025888 -207.9618044 279.0820504 -217.2300303 279.07201904 C-227.78131128 279.06084657 -238.33259281 279.05534459 -248.88387823 279.05032361 C-270.58925873 279.0398675 -292.29462862 279.02227511 -314 279 C-313.05780514 277.73342651 -312.1141611 276.46793099 -311.16992188 275.20288086 C-310.64458862 274.49804062 -310.11925537 273.79320038 -309.57800293 273.06700134 C-307.33411397 270.12776631 -304.93300365 267.34528982 -302.5 264.5625 C-291.80873508 252.17450427 -281.52148512 239.70389565 -272.23046875 226.21875 C-270 223 -270 223 -269 222 C-267.09069519 221.90210747 -265.17772761 221.87535436 -263.26591492 221.87542725 C-262.01975906 221.87286423 -260.77360321 221.87030121 -259.48968506 221.86766052 C-258.09558098 221.86973084 -256.70147698 221.87185359 -255.30737305 221.87402344 C-253.84888148 221.87262941 -252.39039033 221.87073058 -250.93190002 221.86836243 C-247.78181826 221.86385504 -244.63174956 221.86200911 -241.48166466 221.86190033 C-236.49212207 221.86076127 -231.50265373 221.84792954 -226.51313782 221.83233643 C-225.25020567 221.82847715 -225.25020567 221.82847715 -223.96175975 221.8245399 C-222.23934613 221.81927267 -220.51693257 221.81398719 -218.79451907 221.80868387 C-207.17542042 221.77359449 -195.55641186 221.74701339 -183.93725586 221.74951172 C-176.1058382 221.75110512 -168.27467203 221.73494634 -160.44333488 221.69880509 C-156.30128866 221.6804105 -152.15966185 221.67094411 -148.01758385 221.68328094 C-144.11117915 221.69480107 -140.20552133 221.68282175 -136.29921532 221.65364647 C-134.87393031 221.64705827 -133.44857577 221.64878177 -132.02331924 221.65994453 C-120.09895831 221.74550175 -110.02434336 219.21316164 -100.6171875 211.6015625 C-95.66266016 206.69490499 -92.98937598 199.91689757 -92.6875 193 C-92.84256507 187.92161905 -94.57856697 184.50758049 -98.0625 180.8125 C-105.49435121 176.22688968 -113.44591072 175.55898588 -121.99487305 175.59936523 C-123.04513168 175.59238617 -124.09539032 175.5854071 -125.17747498 175.57821655 C-128.62230632 175.5583516 -132.06683541 175.55874033 -135.51171875 175.55859375 C-137.92772719 175.5468059 -140.3437284 175.53343826 -142.75971985 175.51856995 C-149.10785366 175.48246744 -155.45592334 175.46221362 -161.80413818 175.44702148 C-171.94491833 175.42215765 -182.0855566 175.38211984 -192.22620583 175.32512093 C-195.74610951 175.30895254 -199.26587636 175.3050285 -202.78581238 175.30210876 C-233.33234009 175.20182715 -258.49294917 169.62025944 -281.16796875 147.92578125 C-296.64054968 131.73493737 -301.66548187 111.88909102 -301.30859375 90.16015625 C-300.485262 67.53390645 -286.97867327 49.67478376 -271.02001953 34.78613281 C-258.11466921 23.37502054 -241.72524161 15.71867859 -225 12 C-223.9422789 11.7500528 -223.9422789 11.7500528 -222.8631897 11.49505615 C-211.64752799 9.22285554 -200.20834844 9.65146986 -188.81640625 9.62890625 C-186.46898851 9.61992857 -184.12157131 9.61080653 -181.77415466 9.60154724 C-176.87652195 9.58513127 -171.97895706 9.57736918 -167.08129883 9.57446289 C-160.80424837 9.56905014 -154.52783256 9.53121927 -148.25096226 9.48571873 C-143.41342309 9.45601486 -138.57603913 9.44874097 -133.73841667 9.44773674 C-131.42312615 9.44353043 -129.10783533 9.43107982 -126.79263496 9.41021919 C-123.56382823 9.38341109 -120.33652659 9.38809653 -117.10766602 9.40063477 C-116.15331665 9.38580048 -115.19896729 9.37096619 -114.21569824 9.35568237 C-109.60157953 9.40679308 -107.67076065 9.45461777 -103.98399353 12.45225525 C-103.00191673 13.7133889 -103.00191673 13.7133889 -102 15 C-96.1028512 19.34199353 -90.1320509 19.81480412 -83 19 C-76.21279095 17.64255819 -69.75228637 14.84775895 -63.32348633 12.33349609 C-52.63316751 8.20529354 -41.7338329 5.29355209 -30.48876953 3.13476562 C-28.49855795 2.74972101 -26.51323672 2.34416083 -24.52734375 1.9375 C-16.28005691 0.30363239 -8.4073653 -0.35358078 0 0 Z " fill="#FCFCFC" transform="translate(567,362)"/>
<path d="M0 0 C7.47832067 3.20499457 12.16363119 13.31050801 16.375 19.875 C17.89066057 22.21911513 19.41023504 24.56068529 20.9296875 26.90234375 C21.3176651 27.50124924 21.7056427 28.10015472 22.1053772 28.71720886 C26.17824046 34.99668527 30.33600363 41.21809194 34.5 47.4375 C40.92904225 57.04830885 47.29690509 66.69743525 53.625 76.375 C59.49719801 85.3546709 65.38800287 94.31976369 71.35896301 103.23420715 C77.98473121 113.12961719 84.58369624 123.04203418 91.12109375 132.99609375 C91.95376266 134.26379105 91.95376266 134.26379105 92.80325317 135.55709839 C93.36954437 136.41924957 93.93583557 137.28140076 94.51928711 138.16967773 C107.06916516 157.27497511 119.74105046 176.29281956 132.55444336 195.22241211 C140.63131783 207.15473497 148.64752256 219.12599256 156.625 231.125 C157.24503403 232.05743027 157.24503403 232.05743027 157.87759399 233.00869751 C158.90677785 234.5565127 159.93581681 236.10442423 160.96484375 237.65234375 C168.26626961 248.63483986 175.62036743 259.57667686 183.10522461 270.43530273 C183.69956299 271.30098877 184.29390137 272.1666748 184.90625 273.05859375 C185.43283203 273.82228271 185.95941406 274.58597168 186.50195312 275.37280273 C187.625 277.125 187.625 277.125 187.625 278.125 C178.38578402 278.6851706 169.15252053 279.10935264 159.89994049 279.36849213 C155.60080044 279.49300466 151.31337896 279.66105858 147.02099609 279.93554688 C119.41552723 281.65486217 119.41552723 281.65486217 111.56347656 275.86914062 C106.58753762 270.43775113 103.22198021 264.33062895 100.40686035 257.55310059 C95.89579471 247.94875447 95.89579471 247.94875447 87.61408234 242.11886787 C83.89849935 241.72902131 80.32506915 241.69821604 76.58984375 241.78442383 C75.17978422 241.77765471 73.76974092 241.76604841 72.35975647 241.75 C68.55127923 241.72024027 64.74614123 241.757734 60.93798828 241.80773759 C56.95142134 241.84850744 52.96519309 241.82684504 48.97851562 241.81193542 C41.43819175 241.79315513 33.89922466 241.83014663 26.35913658 241.88740796 C17.77139235 241.94989281 9.1839997 241.94985356 0.59607124 241.94468272 C-17.06145614 241.93544554 -34.71790637 242.00433529 -52.375 242.125 C-51.41780285 240.35176918 -50.4584015 238.57972806 -49.49806213 236.80819702 C-48.96403054 235.82126547 -48.42999895 234.83433392 -47.87978458 233.81749535 C-46.31378175 231.01546283 -44.60905952 228.45782025 -42.65234375 225.9140625 C-39.37929586 221.53389701 -36.27820102 217.07653118 -33.25390625 212.5234375 C-32.81887787 211.86877502 -32.38384949 211.21411255 -31.93563843 210.53961182 C-30.60112884 208.52759144 -29.26908967 206.51395378 -27.9375 204.5 C-26.57585647 202.44369931 -25.21351182 200.38787129 -23.84983826 198.33291626 C-23.00941299 197.06616834 -22.17022297 195.79859982 -21.33241272 194.53012085 C-18.48662189 190.23662189 -18.48662189 190.23662189 -17.375 189.125 C-15.07446165 189.03056665 -12.77097827 189.00757872 -10.46850586 189.01147461 C-9.74659561 189.01132858 -9.02468536 189.01118256 -8.28089905 189.0110321 C-5.88385053 189.01173131 -3.48687877 189.01952405 -1.08984375 189.02734375 C0.56782489 189.0292079 2.22549407 189.03063182 3.88316345 189.03163147 C8.25454214 189.03545688 12.62588781 189.04528735 16.99725342 189.05633545 C21.45454461 189.06654908 25.91184111 189.07112899 30.36914062 189.07617188 C39.12110893 189.0869096 47.87305036 189.10398629 56.625 189.125 C49.66812444 178.25939929 49.66812444 178.25939929 42.56640625 167.48828125 C42.13940933 166.84849335 41.71241241 166.20870544 41.2724762 165.54953003 C39.91191443 163.51145153 38.5497247 161.4744673 37.1875 159.4375 C36.22562604 157.9972336 35.26387681 156.55688389 34.30224609 155.11645508 C32.35419805 152.19870848 30.40559273 149.28133535 28.45654297 146.36425781 C24.59427732 140.58295102 20.73831733 134.79744404 16.88253784 129.0118103 C15.1120819 126.35533922 13.34118064 123.69916506 11.5703125 121.04296875 C7.58854167 115.0703125 3.60677083 109.09765625 -0.375 103.125 C-5.31740825 109.72868179 -9.94685362 116.45225133 -14.39624023 123.39306641 C-19.45601298 131.27954196 -24.6032851 139.10763409 -29.75 146.9375 C-35.75061959 156.06951408 -41.74260951 165.20655395 -47.6875 174.375 C-52.19705099 181.32825442 -56.75958051 188.24144471 -61.375 195.125 C-66.72171663 203.11054095 -72.00511973 211.13478617 -77.25 219.1875 C-83.11536819 228.18050848 -89.03191882 237.13717097 -95 246.0625 C-103.14427271 258.24280057 -111.19977246 270.48028909 -119.23291016 282.73413086 C-126.42108089 293.69610305 -126.42108089 293.69610305 -129.86328125 298.87304688 C-130.46641144 299.78577866 -130.46641144 299.78577866 -131.08172607 300.71694946 C-131.9042628 301.93990433 -132.74540698 303.15054144 -133.60430908 304.34823608 C-136.05119139 307.81491215 -137.77814249 311.02282434 -139.21777344 315.02392578 C-141.53882224 320.68594089 -143.9208146 325.03639069 -149.375 328.125 C-161.45940663 331.54656297 -175.36733248 329.88878919 -187.74749756 329.36096191 C-192.55290684 329.17565628 -197.36000469 329.0943776 -202.16796875 329.00390625 C-211.57478884 328.81176975 -220.97403563 328.50528117 -230.375 328.125 C-228.27692415 326.02692415 -227.09986632 325.5121594 -224.359375 324.53125 C-223.11812866 324.07733887 -223.11812866 324.07733887 -221.85180664 323.61425781 C-220.95196045 323.28780273 -220.05211426 322.96134766 -219.125 322.625 C-195.78446904 313.91120177 -173.08747331 303.04485282 -152.375 289.125 C-151.44300781 288.526875 -150.51101563 287.92875 -149.55078125 287.3125 C-115.73117417 265.38501619 -89.11205656 235.95652542 -80 195.8125 C-77.06726681 175.98600166 -80.27214699 159.0494128 -89.66796875 141.48828125 C-91.00896426 138.84618255 -91.88557526 136.97937433 -92.375 134.125 C-91.36328125 131.9609375 -91.36328125 131.9609375 -89.6875 129.5 C-89.03265625 128.5203125 -88.3778125 127.540625 -87.703125 126.53125 C-87.33123047 125.98726563 -86.95933594 125.44328125 -86.57617188 124.8828125 C-84.3371196 121.60615063 -82.14132495 118.30040885 -79.9375 115 C-79.43307373 114.2474292 -78.92864746 113.4948584 -78.40893555 112.71948242 C-74.01413938 106.14170284 -69.74896698 99.48515196 -65.5 92.8125 C-60.00289014 84.18487457 -54.42013643 75.62518704 -48.72167969 67.12939453 C-44.1780151 60.34957421 -39.70618886 53.52507124 -35.25 46.6875 C-32.69821417 42.78150029 -30.14388049 38.87717892 -27.58685303 34.97460938 C-26.75005318 33.6974307 -25.91352212 32.42007588 -25.07720947 31.14257812 C-22.35971576 26.99298682 -19.63396873 22.84899827 -16.89825439 18.71139526 C-16.01372258 17.37117901 -15.13164621 16.02933868 -14.25213623 14.68582153 C-13.02233863 12.808235 -11.78377793 10.9367278 -10.54296875 9.06640625 C-9.47985474 7.45294312 -9.47985474 7.45294312 -8.39526367 5.80688477 C-5.98249518 2.60395281 -4.13463022 0.21761212 0 0 Z " fill="#FCFCFD" transform="translate(640.375,362.875)"/>
<path d="M0 0 C5.13116586 2.84280702 8.51303743 6.96569158 10.8125 12.375 C11.59786619 17.98475849 11.07455144 22.63976403 7.8125 27.375 C3.41581241 31.80354764 -0.95567364 35.63342039 -7.4375 35.75 C-13.66740549 35.59604846 -18.24099626 33.37272752 -22.5625 28.9375 C-26.19192096 23.21418233 -27.1820752 18.11145267 -26.1875 11.375 C-23.93758168 5.72606343 -20.54280067 2.28548949 -15.1875 -0.625 C-9.81313291 -2.4164557 -5.11955434 -2.33676628 0 0 Z " fill="#FAFAFB" transform="translate(490.1875,333.625)"/>
<path d="M0 0 C5.67458978 1.92721917 9.32050871 5.64101742 12 11 C12.59057744 16.67862925 12.29370905 21.16922672 9 26 C4.75219861 30.17983657 1.65498964 32.15309895 -4.3125 32.25 C-8.75628305 32.1920628 -11.55882474 32.03633111 -15 29 C-19.76172774 24.02059327 -21.369724 20.09374769 -21.28125 13.28125 C-20.69180611 8.50020514 -17.85179203 5.75038822 -14.375 2.6875 C-9.68678983 -0.6435967 -5.63115856 -0.46854016 0 0 Z " fill="#F9F9FA" transform="translate(606,333)"/>
<path d="M0 0 C4.29 0 8.58 0 13 0 C9 3 9 3 7 3 C7 2.34 7 1.68 7 1 C4.69 1 2.38 1 0 1 C0 0.67 0 0.34 0 0 Z " fill="#C6C6C6" transform="translate(554,362)"/>
</svg>
